<svg width="192" height="192" viewBox="0 0 192 192" fill="none" xmlns="http://www.w3.org/2000/svg">
<rect width="192" height="192" rx="45" fill="#96F6F1"/>
<path d="M65.4688 101.453H46.9766L43.4609 112H32.2461L51.3008 60.8125H61.0742L80.2344 112H69.0195L65.4688 101.453ZM49.8242 92.9102H62.6211L56.1875 73.75L49.8242 92.9102ZM116.902 93.332C116.902 99.1914 115.566 103.891 112.895 107.43C110.246 110.945 106.66 112.703 102.137 112.703C98.293 112.703 95.1875 111.367 92.8203 108.695V126.625H82.6602V73.9609H92.082L92.4336 77.6875C94.8945 74.7344 98.1055 73.2578 102.066 73.2578C106.754 73.2578 110.398 74.9922 113 78.4609C115.602 81.9297 116.902 86.7109 116.902 92.8047V93.332ZM106.742 92.5938C106.742 89.0547 106.109 86.3242 104.844 84.4023C103.602 82.4805 101.785 81.5195 99.3945 81.5195C96.207 81.5195 94.0156 82.7383 92.8203 85.1758V100.75C94.0625 103.258 96.2773 104.512 99.4648 104.512C104.316 104.512 106.742 100.539 106.742 92.5938ZM157.473 93.332C157.473 99.1914 156.137 103.891 153.465 107.43C150.816 110.945 147.23 112.703 142.707 112.703C138.863 112.703 135.758 111.367 133.391 108.695V126.625H123.23V73.9609H132.652L133.004 77.6875C135.465 74.7344 138.676 73.2578 142.637 73.2578C147.324 73.2578 150.969 74.9922 153.57 78.4609C156.172 81.9297 157.473 86.7109 157.473 92.8047V93.332ZM147.312 92.5938C147.312 89.0547 146.68 86.3242 145.414 84.4023C144.172 82.4805 142.355 81.5195 139.965 81.5195C136.777 81.5195 134.586 82.7383 133.391 85.1758V100.75C134.633 103.258 136.848 104.512 140.035 104.512C144.887 104.512 147.312 100.539 147.312 92.5938Z" fill="black"/>
</svg>
